<?xml version="1.0" encoding="utf-8"?>
<!-- Generator: Adobe Illustrator 27.4.1, SVG Export Plug-In . SVG Version: 6.00 Build 0)  -->
<svg version="1.1" id="Capa_1" xmlns="http://www.w3.org/2000/svg" xmlns:xlink="http://www.w3.org/1999/xlink" x="0px" y="0px"
	 viewBox="0 0 512 512" style="enable-background:new 0 0 512 512;" xml:space="preserve">
<style type="text/css">
	.st0{fill:url(#SVGID_1_);}
</style>
<g>
	<g>
		<linearGradient id="SVGID_1_" gradientUnits="userSpaceOnUse" x1="62.677" y1="256" x2="449.322" y2="256">
			<stop  offset="0" style="stop-color:#67DFFE"/>
			<stop  offset="1" style="stop-color:#5F78F2"/>
		</linearGradient>
		<path class="st0" d="M404.3,0H107.7c-24.8,0-45,20.2-45,45v422c0,24.8,20.2,45,45,45h296.6c24.8,0,45-20.2,45-45V45
			C449.3,20.2,429.1,0,404.3,0z M123.8,88.3c0-6.6,5.4-12,12-12h244.5c6.6,0,12,5.4,12,12v45.7c0,6.6-5.4,12-12,12H135.8
			c-6.6,0-12-5.4-12-12C123.8,134.1,123.8,88.3,123.8,88.3z M270,252.4H242c-8.3,0-15-6.7-15-15V217c0-8.3,6.7-15,15-15H270
			c8.3,0,15,6.7,15,15v20.4C285,245.7,278.3,252.4,270,252.4z M285,313.6V334c0,8.3-6.7,15-15,15H242c-8.3,0-15-6.7-15-15v-20.4
			c0-8.3,6.7-15,15-15H270C278.3,298.6,285,305.4,285,313.6z M177.8,430.6c0,8.3-6.7,15-15,15h-28.1c-8.3,0-15-6.7-15-15v-20.4
			c0-8.3,6.7-15,15-15h28.1c8.3,0,15,6.7,15,15V430.6z M177.8,334c0,8.3-6.7,15-15,15h-28.1c-8.3,0-15-6.7-15-15v-20.4
			c0-8.3,6.7-15,15-15h28.1c8.3,0,15,6.7,15,15V334z M177.8,237.4c0,8.3-6.7,15-15,15h-28.1c-8.3,0-15-6.7-15-15V217
			c0-8.3,6.7-15,15-15h28.1c8.3,0,15,6.7,15,15V237.4z M392.2,430.6c0,8.3-6.7,15-15,15H242c-8.3,0-15-6.7-15-15v-20.4
			c0-8.3,6.7-15,15-15h135.3c8.3,0,15,6.7,15,15L392.2,430.6L392.2,430.6z M392.2,334c0,8.3-6.7,15-15,15h-28.1c-8.3,0-15-6.7-15-15
			v-20.4c0-8.3,6.7-15,15-15h28.1c8.3,0,15,6.7,15,15V334z M392.2,237.4c0,8.3-6.7,15-15,15h-28.1c-8.3,0-15-6.7-15-15V217
			c0-8.3,6.7-15,15-15h28.1c8.3,0,15,6.7,15,15V237.4z"/>
	</g>
</g>
</svg>
