<?xml version="1.0" encoding="utf-8"?>
<!-- Generator: Adobe Illustrator 27.4.1, SVG Export Plug-In . SVG Version: 6.00 Build 0)  -->
<svg version="1.1" id="Capa_1" xmlns="http://www.w3.org/2000/svg" xmlns:xlink="http://www.w3.org/1999/xlink" x="0px" y="0px"
	 viewBox="0 0 512 512" style="enable-background:new 0 0 512 512;" xml:space="preserve">
<style type="text/css">
	.st0{fill:url(#SVGID_1_);}
	.st1{fill:url(#SVGID_00000011006966800389454160000011265570475679478935_);}
	.st2{fill:url(#SVGID_00000078739857757833950070000002146961062765018557_);}
	.st3{fill:url(#SVGID_00000065756036684371729480000005297200733789130921_);}
	.st4{fill:url(#SVGID_00000160890233283165799370000009143823042017751192_);}
</style>
<g id="Layer_5">
	<linearGradient id="SVGID_1_" gradientUnits="userSpaceOnUse" x1="250.2503" y1="281.4631" x2="263.9401" y2="281.4631">
		<stop  offset="0" style="stop-color:#67DFFE"/>
		<stop  offset="1" style="stop-color:#5F78F2"/>
	</linearGradient>
	<circle class="st0" cx="257.1" cy="281.5" r="6.8"/>
	
		<linearGradient id="SVGID_00000009570275084110663460000016193120266957333178_" gradientUnits="userSpaceOnUse" x1="250.2503" y1="308.5142" x2="263.9401" y2="308.5142">
		<stop  offset="0" style="stop-color:#67DFFE"/>
		<stop  offset="1" style="stop-color:#5F78F2"/>
	</linearGradient>
	<circle style="fill:url(#SVGID_00000009570275084110663460000016193120266957333178_);" cx="257.1" cy="308.5" r="6.8"/>
	
		<linearGradient id="SVGID_00000008843934857876885590000009108880615568331703_" gradientUnits="userSpaceOnUse" x1="98.1268" y1="255.7546" x2="416.1731" y2="255.7546">
		<stop  offset="0" style="stop-color:#67DFFE"/>
		<stop  offset="1" style="stop-color:#5F78F2"/>
	</linearGradient>
	<path style="fill:url(#SVGID_00000008843934857876885590000009108880615568331703_);" d="M305.1,239.9l29.6-27l14.2-12.9
		c25.6-23.1,38.3-54.4,38.8-95.9V69.3h21.5c3.8,0.1,6.9-2.9,7-6.7c0-0.1,0-0.1,0-0.2V32.9c0-3.8-3.1-6.8-6.8-6.8H105
		c-3.8,0-6.8,3.1-6.8,6.8v29.6c0,3.8,3.1,6.8,6.8,6.8h21.5V104c0.5,41.3,13.3,72.7,38.9,95.7l16.4,15l27.4,25
		c5.8,4.3,9.4,10.9,9.9,18.1c-0.7,7.4-4.6,14.2-10.6,18.6L165.2,316c-25.6,23.1-38.3,54.4-38.9,95.8V442H105c-3.8,0-6.8,3.1-6.8,6.8
		c0,0.1,0,0.1,0,0.2v29.6c0,3.8,3.1,6.8,6.8,6.8h304.2c3.8,0.1,6.9-2.9,7-6.7c0-0.1,0-0.2,0-0.3V449c0-3.8-3.1-6.8-6.8-6.8h-21.6
		v-30.5c-0.5-41.3-13.2-72.7-38.8-95.7l-43.3-39.6c-6-4.4-9.8-11.1-10.5-18.4C295.7,250.8,299.4,244.2,305.1,239.9L305.1,239.9z
		 M281.4,258c0.6,11.2,6.1,21.6,14.9,28.5l43.2,39.5c23,20.7,33.9,48,34.3,85.7V442H140.1v-30.2c0.5-37.8,11.4-65.1,34.4-85.8
		l43.3-39.5c9-6.9,14.4-17.4,15.1-28.7c-0.6-11-5.9-21.1-14.6-27.9l-27.4-25l-16.4-15c-22.9-20.7-33.8-48-34.3-85.7v-35H374V104
		c-0.4,37.8-11.3,65.1-34.3,85.8c-4.8,4.3-9.5,8.6-14.2,13L295.7,230C287.1,236.9,281.9,247.1,281.4,258L281.4,258z"/>
	
		<linearGradient id="SVGID_00000097483468624872171680000012021074966558036670_" gradientUnits="userSpaceOnUse" x1="173.7751" y1="203.5835" x2="348.1401" y2="203.5835">
		<stop  offset="0" style="stop-color:#67DFFE"/>
		<stop  offset="1" style="stop-color:#5F78F2"/>
	</linearGradient>
	<path style="fill:url(#SVGID_00000097483468624872171680000012021074966558036670_);" d="M347.2,158.8c1.5-2.6,1.1-5.9-1-8.1
		c-2.1-2.2-5.4-2.8-8-1.4c-27,13.7-37.1,18.9-79,5.5c-26.9-8.7-56-6.8-81.5,5.5c-3.4,1.6-4.9,5.7-3.3,9.1c0.2,0.5,0.5,0.9,0.8,1.3
		c2.6,3.1,62.2,60.2,62.8,60.2c4.4,5.1,7.1,11.4,7.7,18.1c0.7,5.8,5.9,10,11.7,9.5c5.5,0.5,10.4-3.5,10.9-9c0,0,0-0.1,0-0.1
		c1.1-8.7,5.4-16.8,12-22.5c0.9-0.8,4.8-4.5,10-9.5c12.8-12.3,34.2-32.9,40-38C337.1,173.6,342.8,166.6,347.2,158.8L347.2,158.8z"/>
	
		<linearGradient id="SVGID_00000152946777754552862940000003716198120158620054_" gradientUnits="userSpaceOnUse" x1="162.7975" y1="377.6889" x2="351.3361" y2="377.6889">
		<stop  offset="0" style="stop-color:#67DFFE"/>
		<stop  offset="1" style="stop-color:#5F78F2"/>
	</linearGradient>
	<path style="fill:url(#SVGID_00000152946777754552862940000003716198120158620054_);" d="M162.8,420.1c-0.1,3.8,2.9,6.9,6.7,7
		c0.1,0,0.2,0,0.3,0h174.7c3.8,0,6.8-3.1,6.8-6.8c0,0,0,0,0,0c-1.3-52.1-44.5-93.3-96.5-92c-50.3,1.2-90.8,41.7-92,92L162.8,420.1z"
		/>
</g>
</svg>
