<?xml version="1.0" encoding="utf-8"?>
<!-- Generator: Adobe Illustrator 27.4.1, SVG Export Plug-In . SVG Version: 6.00 Build 0)  -->
<svg version="1.1" id="Capa_1" xmlns="http://www.w3.org/2000/svg" xmlns:xlink="http://www.w3.org/1999/xlink" x="0px" y="0px"
	 viewBox="0 0 512 512" style="enable-background:new 0 0 512 512;" xml:space="preserve">
<style type="text/css">
	.st0{fill:url(#SVGID_1_);}
	.st1{fill:url(#SVGID_00000176751177044622302560000017747931929711221889_);}
	.st2{fill:url(#SVGID_00000030447659647477029380000008342303229562133393_);}
</style>
<g>
	<g>
		<linearGradient id="SVGID_1_" gradientUnits="userSpaceOnUse" x1="0" y1="165.4999" x2="512" y2="165.4999">
			<stop  offset="0" style="stop-color:#67DFFE"/>
			<stop  offset="1" style="stop-color:#5F78F2"/>
		</linearGradient>
		<path class="st0" d="M505,153.3L264,2.3c-4.9-3-11-3-15.9,0L7,153.3c-4.4,2.7-7,7.5-7,12.7s2.7,10,7,12.7l241,150
			c2.4,1.5,5.2,2.3,8,2.3s5.5-0.8,8-2.3l241-150c4.4-2.7,7-7.5,7-12.7C512,160.8,509.3,156,505,153.3z"/>
	</g>
</g>
<g>
	<g>
		
			<linearGradient id="SVGID_00000062154727426602285140000010410448688680819075_" gradientUnits="userSpaceOnUse" x1="0" y1="415.344" x2="512" y2="415.344">
			<stop  offset="0" style="stop-color:#67DFFE"/>
			<stop  offset="1" style="stop-color:#5F78F2"/>
		</linearGradient>
		<path style="fill:url(#SVGID_00000062154727426602285140000010410448688680819075_);" d="M505,333.3l-23.4-14.6L264,454.1
			c-2.4,1.5-5.2,2.3-8,2.3s-5.5-0.8-8-2.3L30.4,318.7L7,333.3c-4.4,2.7-7,7.5-7,12.7s2.7,10,7,12.7l241,151c2.4,1.5,5.2,2.3,8,2.3
			s5.5-0.8,8-2.3l241-151c4.4-2.7,7-7.5,7-12.7S509.3,336,505,333.3z"/>
	</g>
</g>
<g>
	<g>
		
			<linearGradient id="SVGID_00000098924557158218992530000010179343824452161965_" gradientUnits="userSpaceOnUse" x1="0" y1="324.844" x2="512" y2="324.844">
			<stop  offset="0" style="stop-color:#67DFFE"/>
			<stop  offset="1" style="stop-color:#5F78F2"/>
		</linearGradient>
		<path style="fill:url(#SVGID_00000098924557158218992530000010179343824452161965_);" d="M505,243.3l-23.4-14.6L264,364.1
			c-2.4,1.5-5.2,2.3-8,2.3s-5.5-0.8-8-2.3L30.4,228.7L7,243.3c-4.4,2.7-7,7.5-7,12.7c0,5.2,2.7,10,7,12.7l241,150
			c2.4,1.5,5.2,2.3,8,2.3s5.5-0.8,8-2.3l241-150c4.4-2.7,7-7.5,7-12.7C512,250.8,509.3,246,505,243.3z"/>
	</g>
</g>
</svg>
