<?xml version="1.0" encoding="utf-8"?>
<!-- Generator: Adobe Illustrator 27.4.1, SVG Export Plug-In . SVG Version: 6.00 Build 0)  -->
<svg version="1.1" id="Capa_1" xmlns="http://www.w3.org/2000/svg" xmlns:xlink="http://www.w3.org/1999/xlink" x="0px" y="0px"
	 viewBox="0 0 512 512" style="enable-background:new 0 0 512 512;" xml:space="preserve">
<style type="text/css">
	.st0{fill-rule:evenodd;clip-rule:evenodd;fill:url(#SVGID_1_);}
</style>
<g transform="translate(0 -576)">
	<g id="SOLID">
		<linearGradient id="SVGID_1_" gradientUnits="userSpaceOnUse" x1="21.3333" y1="832" x2="490.6667" y2="832">
			<stop  offset="0" style="stop-color:#67DFFE"/>
			<stop  offset="1" style="stop-color:#5F78F2"/>
		</linearGradient>
		<path class="st0" d="M94.5,783.7l-59.9,27.4c-8.1,3.7-13.3,11.9-13.3,20.9s5.2,17.2,13.3,20.9l59.9,27.4l-59.9,27.4
			c-8.1,3.7-13.3,11.9-13.3,20.9s5.2,17.2,13.3,20.9l209.5,95.8c7.5,3.5,16.2,3.5,23.7,0c31.7-14.5,156.1-71.4,209.5-95.8
			c8.1-3.7,13.3-11.9,13.3-20.9s-5.2-17.2-13.3-20.9l-59.9-27.4l59.9-27.4c8.1-3.7,13.3-11.9,13.3-20.9s-5.2-17.2-13.3-20.9
			l-59.9-27.4l59.9-27.4c8.1-3.7,13.3-11.9,13.3-20.9c0-9-5.2-17.2-13.3-20.9l-209.5-95.8c-7.5-3.5-16.2-3.5-23.7,0L34.7,714.6
			c-8.1,3.7-13.3,11.9-13.3,20.9c0,9,5.2,17.2,13.3,20.9L94.5,783.7z M391.8,795.5l-123.9,56.7c-7.5,3.4-16.2,3.4-23.7,0
			l-123.9-56.7l-76.6,35.1c-0.6,0.3-0.9,0.9-0.9,1.5s0.3,1.2,0.9,1.5L253,929.3c1.9,0.9,4.1,0.9,6,0l209.5-95.8
			c0.6-0.3,0.9-0.9,0.9-1.5s-0.3-1.2-0.9-1.5L391.8,795.5z"/>
	</g>
</g>
</svg>
