<?xml version="1.0" encoding="utf-8"?>
<!-- Generator: Adobe Illustrator 27.4.1, SVG Export Plug-In . SVG Version: 6.00 Build 0)  -->
<svg version="1.1" id="Capa_1" xmlns="http://www.w3.org/2000/svg" xmlns:xlink="http://www.w3.org/1999/xlink" x="0px" y="0px"
	 viewBox="0 0 512 512" style="enable-background:new 0 0 512 512;" xml:space="preserve">
<style type="text/css">
	.st0{fill:url(#SVGID_1_);}
</style>
<g id="star">
	<linearGradient id="SVGID_1_" gradientUnits="userSpaceOnUse" x1="28.5912" y1="256.374" x2="483.4088" y2="256.374">
		<stop  offset="0" style="stop-color:#67DFFE"/>
		<stop  offset="1" style="stop-color:#5F78F2"/>
	</linearGradient>
	<path class="st0" d="M478.6,220l-99.7,97.2l23.5,137.2c1,6-1.4,12.1-6.4,15.6c-2.8,2-6.1,3.1-9.4,3.1c-2.5,0-5.1-0.6-7.4-1.8
		L256,406.4l-123.2,64.8c-5.4,2.8-11.9,2.4-16.8-1.2c-4.9-3.6-7.4-9.6-6.4-15.6l23.5-137.2L33.4,220c-4.4-4.3-5.9-10.6-4-16.4
		s6.9-10,12.9-10.9l137.7-20l61.6-124.8c5.4-10.9,23.3-10.9,28.7,0L332,172.7l137.7,20c6,0.9,11,5.1,12.9,10.9
		S482.9,215.7,478.6,220L478.6,220z"/>
</g>
</svg>
