<svg width="72" height="72" viewBox="0 0 72 72" fill="none" xmlns="http://www.w3.org/2000/svg">
<path d="M32.6248 50.625C32.6248 51.5201 32.9804 52.3785 33.6133 53.0115C34.2463 53.6444 35.1047 54 35.9998 54C36.8949 54 37.7534 53.6444 38.3863 53.0115C39.0192 52.3785 39.3748 51.5201 39.3748 50.625C39.3748 49.7299 39.0192 48.8715 38.3863 48.2385C37.7534 47.6056 36.8949 47.25 35.9998 47.25C35.1047 47.25 34.2463 47.6056 33.6133 48.2385C32.9804 48.8715 32.6248 49.7299 32.6248 50.625ZM33.7498 29.25V42.1875C33.7498 42.4969 34.003 42.75 34.3123 42.75H37.6873C37.9967 42.75 38.2498 42.4969 38.2498 42.1875V29.25C38.2498 28.9406 37.9967 28.6875 37.6873 28.6875H34.3123C34.003 28.6875 33.7498 28.9406 33.7498 29.25ZM67.1975 60.1875L37.9475 9.5625C37.5115 8.81016 36.7592 8.4375 35.9998 8.4375C35.2405 8.4375 34.4811 8.81016 34.0522 9.5625L4.80217 60.1875C3.93733 61.6922 5.02014 63.5625 6.74983 63.5625H65.2498C66.9795 63.5625 68.0623 61.6922 67.1975 60.1875ZM12.1076 58.2258L35.9998 16.868L59.892 58.2258H12.1076Z" fill="#F15962"/>
</svg>
